<svg width="19" height="19" viewBox="0 0 19 19" fill="none" xmlns="http://www.w3.org/2000/svg">
<g clip-path="url(#clip0_3_158)">
<path d="M17.2698 7.7658H11.229V1.73001C11.229 0.774613 10.4582 0 9.50278 0C8.54738 0 7.77695 0.774614 7.77695 1.73043V7.76999H1.73321C0.777814 7.76999 0.00110807 8.5446 0.00152656 9.50042C0.00110807 9.97791 0.194029 10.4156 0.506636 10.7283C0.819662 11.0417 1.25154 11.2396 1.72861 11.2396H7.77695V17.2708C7.77695 17.7487 7.96653 18.1814 8.27955 18.4936C8.59258 18.8067 9.0232 19.0004 9.50111 19.0004C10.4561 19.0004 11.229 18.2258 11.229 17.2708V11.2392H17.2698C18.2252 11.2392 18.9999 10.4579 18.9994 9.50251C18.999 8.54753 18.2244 7.7658 17.2698 7.7658Z" fill="#186EF0"/>
</g>
<defs>
<clipPath id="clip0_3_158">
<rect width="19" height="19" fill="white"/>
</clipPath>
</defs>
</svg>
