<svg width="23" height="20" viewBox="0 0 23 20" fill="none" xmlns="http://www.w3.org/2000/svg">
<path fill-rule="evenodd" clip-rule="evenodd" d="M16.2008 0.5C19.5308 0.5 22.0418 3.217 22.0418 6.82V13.688C22.0418 15.532 21.3898 17.198 20.2048 18.38C19.1418 19.439 17.7628 20 16.2168 20H6.36381C4.82081 20 3.44281 19.44 2.37881 18.38C1.19381 17.198 0.541809 15.532 0.541809 13.688V6.82C0.541809 3.217 3.05281 0.5 6.38281 0.5H16.2008ZM16.2008 2H6.38281C3.86781 2 2.04181 4.027 2.04181 6.82V13.688C2.04181 15.131 2.53781 16.42 3.43781 17.317C4.21381 18.092 5.22681 18.5 6.36681 18.5H16.2008C16.2028 18.498 16.2108 18.5 16.2168 18.5C17.3578 18.5 18.3698 18.092 19.1458 17.317C20.0468 16.42 20.5418 15.131 20.5418 13.688V6.82C20.5418 4.027 18.7158 2 16.2008 2ZM17.7768 6.6288C18.0378 6.9498 17.9888 7.4218 17.6678 7.6838L13.2238 11.2958C12.6618 11.7418 11.9898 11.9648 11.3188 11.9648C10.6498 11.9648 9.98281 11.7438 9.42481 11.3018L4.93981 7.6858C4.61681 7.4258 4.56681 6.9528 4.82581 6.6308C5.08681 6.3098 5.55881 6.2588 5.88081 6.5178L10.3618 10.1298C10.9248 10.5758 11.7178 10.5758 12.2848 10.1258L16.7208 6.5198C17.0428 6.2568 17.5148 6.3068 17.7768 6.6288Z" fill="#B8B8B8"/>
</svg>
